<?xml version="1.0" encoding="utf-8"?>
<!-- Generator: Adobe Illustrator 16.0.0, SVG Export Plug-In . SVG Version: 6.00 Build 0)  -->
<!DOCTYPE svg PUBLIC "-//W3C//DTD SVG 1.1//EN" "http://www.w3.org/Graphics/SVG/1.1/DTD/svg11.dtd">
<svg version="1.1" id="圖層_1" xmlns="http://www.w3.org/2000/svg" xmlns:xlink="http://www.w3.org/1999/xlink" x="0px" y="0px"
	 width="841.89px" height="595.28px" viewBox="0 0 841.89 595.28" enable-background="new 0 0 841.89 595.28" xml:space="preserve">
<g>
	<path fill-rule="evenodd" clip-rule="evenodd" d="M339.995,120.101c-0.09,0.398-0.193,0.681-0.212,0.969
		c-0.034,0.541-0.024,1.087-0.024,1.631c0,21.819,0,43.639,0.002,65.458c0,0.663,0.015,1.329,0.068,1.989
		c0.035,0.436,0.632,0.646,0.977,0.359c0.183-0.151,0.35-0.332,0.488-0.524c2.732-3.784,5.918-7.175,9.096-10.577
		c15.514-16.607,31.007-33.232,46.507-49.852c25.064-26.874,50.128-53.748,75.194-80.62c0.493-0.528,1.006-1.04,1.471-1.52
		c2.428-0.177,46.323-0.121,47.825,0.07c-0.185,0.634-0.706,0.976-1.102,1.382c-6.186,6.378-12.382,12.745-18.574,19.116
		c-9.437,9.708-18.872,19.417-28.308,29.126c-0.295,0.303-0.578,0.618-0.887,0.906c-0.423,0.395-0.642,0.857-0.604,1.445
		c0.023,0.361,0.002,0.725,0.002,1.088c-0.001,26.594-0.002,53.188,0.007,79.782c0,0.64-0.128,1.307,0.189,2.062
		c0.646-0.264,0.984-0.768,1.378-1.186c3.727-3.963,7.446-7.932,11.168-11.898c21.006-22.395,42.013-44.787,63.016-67.184
		c0.453-0.483,0.87-1,1.188-1.368c12.998,0,25.74,0,38.54,0c0.086,0.63-0.385,0.89-0.691,1.204
		c-3.372,3.466-6.758,6.918-10.139,10.375c-25.858,26.447-51.718,52.896-77.575,79.345c-0.417,0.427-0.816,0.872-1.27,1.356
		c0.261,0.692,0.816,1.088,1.262,1.551c9.729,10.097,19.467,20.186,29.202,30.277c21.36,22.139,42.72,44.279,64.077,66.42
		c0.412,0.428,0.793,0.883,1.306,1.457c-0.44,0.118-0.703,0.229-0.974,0.252c-0.42,0.037-0.845,0.015-1.268,0.015
		c-12.572,0-25.144,0.003-37.716-0.003c-2.414-0.001-1.911,0.197-3.554-1.58c-25.432-27.523-50.858-55.049-76.291-82.57
		c-0.476-0.514-0.889-1.111-1.612-1.514c-0.353,0.574-0.236,1.123-0.239,1.635c-0.03,5.318-0.049,10.638-0.069,15.956
		c-0.079,20.852-0.163,41.702-0.232,62.554c-0.009,2.47-0.297,1.831,1.44,3.643c18.993,19.803,37.99,39.604,56.979,59.411
		c0.44,0.459,0.985,0.855,1.24,1.47c-0.175,0.116-0.267,0.23-0.358,0.23c-17.705,0.008-35.411,0.008-53.351,0.008
		c-0.22-0.276-0.497-0.673-0.821-1.025c-42.066-45.809-84.137-91.613-126.201-137.424c-2.002-2.181-3.968-4.397-5.897-6.643
		c-1.141-1.328-2.179-2.744-3.26-4.123c-0.149-0.189-0.249-0.444-0.438-0.568c-0.229-0.151-0.534-0.272-0.795-0.254
		c-0.133,0.01-0.297,0.342-0.346,0.551c-0.066,0.289-0.045,0.601-0.049,0.902c-0.005,0.604-0.002,1.209-0.002,1.813
		c0,47.93,0,95.86-0.002,143.79c0,0.902-0.027,1.804-0.043,2.78c-0.413,0.086-0.748,0.192-1.09,0.218
		c-0.48,0.036-0.966,0.013-1.449,0.013c-11.242,0-22.484,0-33.727,0c-0.72,0-1.439,0-2.24,0c-0.08-0.514-0.178-0.915-0.197-1.319
		c-0.03-0.664-0.01-1.329-0.01-1.994c0-75.311,0-150.62-0.002-225.93c0-0.898-0.027-1.796-0.044-2.771
		c-0.429-0.08-0.767-0.182-1.108-0.199c-0.604-0.031-1.209-0.014-1.813-0.014c-13.781,0-27.563,0.003-41.343-0.008
		c-0.708,0-1.448,0.159-2.134-0.22c-0.051-0.185-0.137-0.355-0.137-0.526c-0.01-11.242-0.014-22.484-0.013-33.726
		c0-0.23,0.07-0.461,0.116-0.735c0.659-0.3,1.331-0.18,1.977-0.181c7.496-0.011,14.99-0.007,22.484-0.007
		c6.588,0,13.177,0.002,19.765-0.003c0.654-0.001,1.308-0.045,2.056-0.072c0.074-0.429,0.164-0.767,0.182-1.108
		c0.029-0.543,0.014-1.088,0.014-1.632c0-10.698-0.001-21.396,0.002-32.095c0-0.717,0.035-1.434,0.053-2.115
		c0.581-0.422,1.141-0.288,1.66-0.29c3.809-0.013,7.615-0.007,11.424-0.007c7.797,0,15.594-0.002,23.391,0.003
		c0.653,0.001,1.307,0.044,2.049,0.07c0.066,0.434,0.16,0.775,0.164,1.118c0.02,1.391,0.016,2.781,0.016,4.171
		c0,9.853-0.002,19.704,0.003,29.556c0.001,0.716-0.075,1.443,0.192,2.25c0.348,0.051,0.688,0.129,1.029,0.145
		c0.543,0.025,1.087,0.01,1.631,0.01c13.902,0,27.803,0,41.705,0c0.717,0,1.436,0,2.242,0c0.074,0.52,0.177,0.918,0.181,1.319
		c0.018,1.935,0.009,3.868,0.009,5.802c0,8.704,0.004,17.408-0.006,26.111c0,0.648,0.112,1.318-0.156,1.979
		c-0.718,0.305-1.451,0.186-2.162,0.186c-10.154,0.009-20.309,0.006-30.463,0.006c-3.987,0-7.976-0.002-11.963,0.002
		C341.345,120.053,340.688,120.083,339.995,120.101z M379.641,193.757c20.399,21.249,40.731,42.428,61.07,63.602
		c0.11,0.114,0.304,0.148,0.522,0.251c0.406-0.63,0.258-1.306,0.255-1.937c-0.037-7.795-0.107-15.59-0.137-23.383
		c-0.046-12.568-0.067-25.137-0.1-37.705c-0.049-18.913-0.098-37.826-0.149-56.738c-0.005-2.055-0.018-4.109-0.051-6.164
		c-0.004-0.25-0.159-0.497-0.26-0.79C439.551,131.87,380.915,192.139,379.641,193.757z"/>
	<path fill-rule="evenodd" clip-rule="evenodd" d="M458.445,451.894c-1.968,0.218-11.491,0.19-12.881-0.014
		c-0.388-0.535-0.242-1.159-0.244-1.748c-0.012-4.048-0.007-8.097-0.007-12.145c0-5.075,0.006-10.15-0.003-15.226
		c-0.004-2.054-0.036-4.106-0.439-6.135c-0.261-1.311-0.623-2.583-1.234-3.773c-2.104-4.092-6.808-3.871-9.178-1.017
		c-1.397,1.683-2.138,3.635-2.355,5.783c-0.109,1.079-0.117,2.172-0.117,3.259c-0.01,9.606-0.003,19.213-0.012,28.819
		c0,0.712,0.118,1.444-0.172,2.139c-0.201,0.066-0.367,0.169-0.533,0.17c-3.867,0.014-7.733,0.02-11.6,0.017
		c-0.229,0-0.458-0.082-0.722-0.133c-0.295-0.665-0.174-1.337-0.174-1.984c-0.01-9.184-0.007-18.367-0.008-27.551
		c0-1.935-0.012-3.867-0.393-5.776c-0.31-1.549-0.734-3.055-1.614-4.391c-1.036-1.574-2.486-2.452-4.39-2.45
		c-1.519,0.002-2.822,0.588-3.893,1.668c-1.633,1.647-2.556,3.658-2.871,5.928c-0.174,1.251-0.229,2.527-0.232,3.793
		c-0.018,9.485-0.008,18.972-0.012,28.457c0,0.719-0.023,1.438-0.039,2.218c-0.362,0.09-0.641,0.218-0.921,0.219
		c-3.745,0.014-7.491,0.012-11.237,0.005c-0.23-0.001-0.462-0.07-0.73-0.113c-0.324-0.654-0.193-1.328-0.194-1.974
		c-0.011-7.25-0.003-14.5-0.009-21.75c-0.004-6.163,0.009-12.326-0.043-18.488c-0.029-3.442-0.178-6.885-0.268-10.327
		c-0.015-0.595-0.002-1.19-0.002-1.756c1.296-0.361,7.966-0.462,11.147-0.19c0.586,1.087,0.298,2.327,0.463,3.496
		c0.159,1.129,0.237,2.27,0.348,3.368c0.423,0.213,0.597-0.023,0.776-0.283c0.619-0.893,1.191-1.825,1.881-2.66
		c2.018-2.442,4.506-4.174,7.65-4.855c6.767-1.469,11.686,1.546,14.272,6.56c0.277,0.535,0.486,1.105,0.753,1.646
		c0.098,0.198,0.271,0.36,0.501,0.656c0.408-0.59,0.748-1.07,1.076-1.56c1.395-2.075,3.049-3.902,5.125-5.318
		c3.396-2.316,7.125-2.851,11.075-1.948c2.897,0.662,5.114,2.379,6.868,4.727c1.841,2.465,2.905,5.277,3.591,8.244
		c0.778,3.37,1.082,6.793,1.081,10.248c-0.003,7.432,0,14.863,0,22.294c0,2.658,0.004,5.317-0.004,7.976
		C458.521,450.609,458.476,451.201,458.445,451.894z"/>
	<path fill-rule="evenodd" clip-rule="evenodd" d="M344.157,546.535c-1.521,0.201-11.806,0.304-14.557,0.167
		c-0.287-0.014-0.572-0.095-0.844-0.142c-0.08-0.243-0.186-0.411-0.186-0.58c-0.012-25.927-0.016-51.854-0.014-77.781
		c0-0.231,0.084-0.462,0.112-0.604c0.122-0.115,0.159-0.165,0.208-0.191c0.053-0.028,0.115-0.049,0.174-0.05
		c4.652-0.019,9.305-0.035,13.957-0.048c0.299,0,0.598,0.043,0.887,0.064c0.507,0.604,0.312,1.298,0.314,1.938
		c0.017,5.016,0.009,10.032,0.009,15.049c0,3.988-0.002,7.978,0.003,11.967c0,0.598,0.029,1.195,0.045,1.747
		c0.59,0.3,0.715-0.176,0.907-0.418c1.524-1.915,3.353-3.459,5.461-4.704c6.356-3.753,17.37-3.277,22.505,6.317
		c1.355,2.531,2.193,5.229,2.694,8.039c0.457,2.564,0.627,5.159,0.631,7.76c0.017,9.852,0.011,19.702-0.001,29.554
		c0,0.647,0.164,1.333-0.284,1.978c-0.269,0.035-0.564,0.107-0.86,0.107c-4.593-0.001-9.186-0.01-13.779-0.026
		c-0.166-0.001-0.334-0.103-0.529-0.165c-0.319-0.692-0.188-1.427-0.188-2.138c-0.01-8.885-0.003-17.769-0.009-26.653
		c-0.002-2.054,0.002-4.11-0.464-6.132c-0.3-1.302-0.703-2.563-1.41-3.708c-1.302-2.108-3.18-3.246-5.665-3.367
		c-4.588-0.222-8.438,3.074-8.949,7.705c-0.105,0.958-0.102,1.931-0.102,2.897c-0.008,9.73-0.004,19.461-0.008,29.191
		C344.216,545.023,344.18,545.737,344.157,546.535z"/>
	<path fill-rule="evenodd" clip-rule="evenodd" d="M562.139,546.556c-1.768,0.222-13.683,0.209-15.269-0.01
		c-0.055-0.308-0.146-0.646-0.169-0.988c-0.031-0.481-0.012-0.966-0.012-1.449c0-24.771-0.001-49.542,0.004-74.313
		c0-0.77-0.088-1.554,0.127-2.279c1.583-0.284,13.659-0.291,15.311-0.01c0.212,0.602,0.124,1.267,0.125,1.915
		c0.006,8.942,0.003,17.884,0.007,26.826c0,0.646,0.034,1.292,0.052,1.94c0.664,0.077,0.819-0.389,1.058-0.686
		c1.493-1.861,3.292-3.35,5.346-4.559c6.319-3.722,17.231-3.278,22.41,6.169c1.709,3.12,2.594,6.486,3.047,9.987
		c0.295,2.282,0.355,4.573,0.353,6.872c-0.013,9.485-0.006,18.971-0.006,28.456c0,0.656,0,1.313,0,2.057
		c-0.448,0.09-0.785,0.215-1.121,0.216c-4.471,0.013-8.941,0.01-13.413,0.004c-0.237,0-0.476-0.053-0.807-0.092
		c-0.076-0.328-0.197-0.66-0.222-0.999c-0.04-0.542-0.017-1.087-0.017-1.631c-0.001-8.821,0.001-17.642-0.002-26.463
		c-0.001-2.118-0.142-4.225-0.613-6.298c-0.27-1.186-0.685-2.317-1.325-3.354c-1.302-2.106-3.187-3.234-5.672-3.352
		c-4.233-0.198-7.631,2.394-8.742,6.646c-0.311,1.188-0.327,2.389-0.327,3.598c-0.001,9.787-0.001,19.575-0.001,29.363
		c0,0.543,0.004,1.087-0.012,1.631C562.24,545.986,562.187,546.217,562.139,546.556z"/>
	<path fill-rule="evenodd" clip-rule="evenodd" d="M292.391,408.731c0.345,0.742,0.638,1.4,0.952,2.049
		c6.339,13.033,12.682,26.065,19.014,39.103c0.306,0.63,0.779,1.221,0.709,1.99c-1.418,0.208-12.62,0.266-15.272,0.083
		c-0.575-0.384-0.703-1.071-0.974-1.66c-4.356-9.495-8.701-18.995-13.055-28.492c-0.296-0.646-0.626-1.277-0.9-1.835
		c-0.551-0.113-0.664,0.235-0.81,0.457c-1.33,2.018-2.624,4.06-3.968,6.066c-0.424,0.635-0.611,1.281-0.604,2.035
		c0.023,2.236,0.008,4.472,0.008,6.708c0,4.894,0.004,9.788-0.006,14.683c-0.001,0.651,0.115,1.326-0.187,1.929
		c-1.427,0.248-11.388,0.273-13.124,0.03c-0.059-0.321-0.149-0.664-0.176-1.013c-0.033-0.421-0.012-0.846-0.012-1.269
		c0-23.506-0.002-47.011,0.008-70.517c0-0.768-0.174-1.568,0.215-2.288c1.604-0.214,11.571-0.205,13.043,0.009
		c0.395,0.6,0.228,1.283,0.23,1.932c0.016,4.108,0.008,8.218,0.008,12.327c0,5.498-0.002,10.997,0.001,16.496
		c0.001,0.656,0.021,1.313,0.032,1.939c0.537,0.129,0.621-0.222,0.74-0.462c5.186-10.445,11.049-20.526,16.541-30.807
		c0.255-0.479,0.544-0.938,0.802-1.38c1.39-0.268,12.755-0.354,16.317-0.131c0.316,0.479-0.102,0.792-0.301,1.113
		c-2.705,4.363-5.43,8.715-8.146,13.072c-3.355,5.382-6.709,10.766-10.062,16.149C293.098,407.561,292.788,408.078,292.391,408.731z
		"/>
	<path fill-rule="evenodd" clip-rule="evenodd" d="M483.804,452.026c-4.504,0.019-8.779,0.032-13.142-0.009
		c-0.1-0.438-0.216-0.77-0.241-1.108c-0.039-0.541-0.021-1.087-0.021-1.63c-0.001-23.324-0.002-46.647,0.007-69.971
		c0.001-0.826-0.156-1.683,0.22-2.485c0.208-0.063,0.376-0.157,0.544-0.158c3.928-0.013,7.854-0.017,11.782-0.015
		c0.231,0,0.463,0.065,0.728,0.105c0.327,0.654,0.194,1.329,0.195,1.975c0.01,9.607,0.007,19.215,0.007,28.822
		c0,0.658,0,1.315,0,1.938c0.542,0.156,0.641-0.185,0.761-0.426c5.155-10.393,10.986-20.422,16.454-30.646
		c0.311-0.58,0.659-1.139,0.95-1.64c2.199-0.237,15.021-0.188,16.456,0.07c-0.935,1.923-2.168,3.626-3.255,5.412
		c-1.067,1.755-2.168,3.489-3.254,5.232c-1.118,1.794-2.236,3.588-3.354,5.383c-1.087,1.742-2.175,3.484-3.261,5.228
		c-1.117,1.795-2.234,3.59-3.35,5.386c-1.082,1.739-2.161,3.479-3.271,5.268c3.51,7.215,7.003,14.375,10.479,21.544
		c3.469,7.155,6.972,14.295,10.444,21.51c-1.492,0.274-13.289,0.337-15.7,0.105c-1.672-3.454-3.246-7.04-4.885-10.596
		c-1.643-3.564-3.272-7.135-4.907-10.703c-1.634-3.563-3.268-7.126-4.859-10.599c-0.513-0.185-0.677,0.097-0.837,0.342
		c-1.39,2.122-2.767,4.253-4.164,6.37c-0.313,0.475-0.468,0.969-0.446,1.533c0.016,0.422,0,0.846,0,1.269
		c0,6.768,0.002,13.535-0.003,20.302C483.878,450.488,483.835,451.141,483.804,452.026z"/>
	<path fill-rule="evenodd" clip-rule="evenodd" d="M532.627,193.987c0.495-0.542,0.893-0.993,1.307-1.429
		c10.284-10.815,20.569-21.63,30.854-32.443c0.208-0.219,0.423-0.433,0.62-0.661c0.341-0.395,0.772-0.553,1.284-0.545
		c0.423,0.006,0.846-0.007,1.269-0.008c8.762,0,17.523-0.002,26.284,0.006c0.644,0,1.308-0.101,2.047,0.18
		c-0.128,0.563-0.529,0.847-0.847,1.169c-5.253,5.343-10.511,10.681-15.766,16.021c-5.172,5.254-10.342,10.508-15.511,15.764
		c-0.378,0.384-0.734,0.789-1.093,1.174c0.317,0.765,0.915,1.206,1.413,1.721c10.509,10.85,21.026,21.691,31.533,32.545
		c0.443,0.457,1.015,0.836,1.222,1.464c-0.321,0.405-0.708,0.282-1.046,0.282c-9.788,0.008-19.577-0.006-29.365,0.025
		c-0.991,0.003-1.688-0.297-2.359-1.024c-4.55-4.929-9.137-9.821-13.711-14.726c-5.646-6.055-11.29-12.109-16.934-18.165
		C533.46,194.94,533.107,194.528,532.627,193.987z"/>
	<path fill-rule="evenodd" clip-rule="evenodd" d="M313.379,531.517c0.146,0.423,0.313,0.751,0.368,1.098
		c0.625,3.988,1.474,7.941,2.003,11.889c-0.505,0.654-1.181,0.791-1.786,1.016c-2.443,0.908-4.981,1.456-7.555,1.819
		c-4.262,0.602-8.541,0.786-12.832,0.381c-8.443-0.798-15.971-3.671-21.992-9.858c-4.232-4.349-6.885-9.583-8.414-15.411
		c-1.566-5.974-1.828-12.036-1.199-18.16c0.421-4.111,1.33-8.103,2.928-11.918c4.697-11.224,13.057-18.174,24.813-21.074
		c5.035-1.242,10.148-1.386,15.3-0.862c2.773,0.282,5.503,0.746,8.163,1.574c1.147,0.357,2.301,0.723,3.283,1.412
		c-0.027,1.424-2.414,11.645-3.117,13.297c-0.369-0.131-0.753-0.25-1.124-0.4c-4.979-2.013-10.16-2.735-15.458-2.003
		c-7.955,1.1-13.539,5.421-16.587,12.895c-1.103,2.702-1.661,5.539-1.91,8.448c-0.338,3.944-0.139,7.846,0.78,11.7
		c0.464,1.945,1.144,3.814,2.072,5.59c2.932,5.608,7.551,8.99,13.695,10.321c3.586,0.776,7.202,0.668,10.816,0.197
		C308.263,533.123,310.833,532.491,313.379,531.517z"/>
	<path fill-rule="evenodd" clip-rule="evenodd" d="M424.128,492.173c1.743-0.226,13.566-0.245,15.356-0.046
		c0.057,0.309,0.153,0.646,0.173,0.986c0.031,0.542,0.012,1.087,0.012,1.631c0.01,13.231,0.002,26.462,0.041,39.693
		c0.009,3.14,0.178,6.279,0.263,9.419c0.022,0.84,0.003,1.681,0.003,2.591c-0.225,0.083-0.438,0.23-0.653,0.231
		c-4.047,0.011-8.094,0.004-12.141-0.004c-0.115-0.001-0.229-0.065-0.362-0.106c-0.453-0.4-0.371-0.974-0.421-1.498
		c-0.154-1.624-0.285-3.249-0.439-4.872c-0.033-0.339,0.054-0.747-0.479-0.986c-0.203,0.235-0.436,0.485-0.647,0.752
		c-0.639,0.803-1.215,1.662-1.913,2.409c-4.039,4.318-9.099,5.976-14.899,5.531c-1.313-0.101-2.639-0.36-3.902-0.737
		c-3.761-1.121-6.57-3.488-8.563-6.847c-1.499-2.526-2.373-5.28-2.888-8.151c-0.469-2.621-0.686-5.269-0.686-7.934
		c0.002-10.028-0.002-20.058,0.006-30.087c0-0.651-0.102-1.321,0.199-2.072c1.246-0.168,2.504-0.065,3.754-0.083
		c1.27-0.017,2.538-0.003,3.807-0.003s2.537-0.008,3.807,0.002c1.256,0.01,2.517-0.051,3.737,0.055
		c0.437,0.719,0.321,1.396,0.323,2.043c0.014,3.383,0.007,6.767,0.007,10.149c0,5.438-0.012,10.875,0.007,16.313
		c0.007,2.174-0.008,4.358,0.51,6.489c0.242,0.993,0.516,1.993,0.918,2.929c2.219,5.163,7.803,5.222,10.921,2.986
		c2.11-1.514,3.399-3.586,3.855-6.126c0.201-1.121,0.245-2.283,0.247-3.427c0.018-9.666,0.01-19.333,0.012-29
		C424.091,493.687,424.114,492.969,424.128,492.173z"/>
	<path fill-rule="evenodd" clip-rule="evenodd" d="M593.933,424.877c0.021,3.818-0.514,8.055-1.891,12.166
		c-0.732,2.188-1.676,4.277-2.948,6.202c-3.821,5.782-9.103,9.249-16.067,9.912c-7.537,0.718-13.76-1.854-18.592-7.692
		c-2.026-2.448-3.413-5.258-4.425-8.263c-0.912-2.707-1.451-5.496-1.668-8.331c-0.419-5.467-0.035-10.866,1.651-16.125
		c1.024-3.194,2.491-6.159,4.628-8.762c4.067-4.954,9.338-7.519,15.722-7.813c2.24-0.104,4.463,0.017,6.651,0.593
		c4.756,1.253,8.504,3.947,11.382,7.891c2.391,3.275,3.839,6.964,4.71,10.899C593.729,418.461,593.955,421.406,593.933,424.877z
		 M580.059,424.352c-0.1-1.26-0.162-2.952-0.383-4.624c-0.3-2.276-0.828-4.509-1.828-6.599c-0.604-1.262-1.345-2.437-2.424-3.348
		c-1.669-1.409-3.556-1.945-5.729-1.426c-1.936,0.462-3.336,1.623-4.427,3.214c-1.142,1.665-1.802,3.538-2.273,5.484
		c-0.937,3.858-0.979,7.775-0.624,11.694c0.213,2.344,0.725,4.646,1.688,6.822c0.616,1.392,1.38,2.682,2.494,3.737
		c1.128,1.069,2.445,1.742,4.013,1.884c2.138,0.192,3.9-0.568,5.353-2.105c1.313-1.389,2.119-3.067,2.723-4.854
		C579.676,431.166,579.912,427.981,580.059,424.352z"/>
	<path fill-rule="evenodd" clip-rule="evenodd" d="M347.058,411.629c-0.869-3.708-1.716-7.152-2.438-10.685
		c0.896-0.536,1.646-1.041,2.443-1.451c3.922-2.021,8.104-3.101,12.506-3.305c2.781-0.128,5.547-0.063,8.266,0.697
		c4.429,1.239,7.722,3.866,9.897,7.905c1.689,3.137,2.524,6.527,2.829,10.043c0.193,2.224,0.259,4.462,0.273,6.694
		c0.046,6.947,0.012,13.896,0.069,20.843c0.02,2.353,0.215,4.704,0.336,7.056c0.04,0.776,0.097,1.553,0.149,2.369
		c-1.393,0.463-2.724,0.185-4.029,0.234c-1.266,0.049-2.537,0.011-3.805,0.011c-1.324,0-2.648,0-4.016,0
		c-0.753-1.68-0.471-3.505-1.149-5.247c-0.294,0.205-0.501,0.301-0.642,0.457c-0.363,0.403-0.673,0.856-1.047,1.249
		c-4.18,4.382-9.246,5.716-15.045,4.2c-2.917-0.763-5.14-2.608-6.881-5.038c-1.877-2.619-2.859-5.586-3.191-8.753
		c-0.318-3.026-0.107-6.041,0.74-8.979c1.391-4.828,4.328-8.433,8.727-10.852c2.783-1.53,5.775-2.454,8.902-2.909
		c1.789-0.26,3.604-0.338,5.405-0.511c0.587-0.056,1.212,0.076,1.739-0.294c0.498-3.447-1.296-6.289-4.573-7.221
		c-1.892-0.538-3.823-0.539-5.751-0.257c-3.084,0.452-5.957,1.509-8.615,3.145C347.861,411.216,347.544,411.367,347.058,411.629z
		 M367.344,426.26c-0.972,0-1.939-0.075-2.892,0.017c-1.863,0.18-3.688,0.568-5.379,1.426c-1.666,0.846-2.975,2.049-3.663,3.823
		c-0.841,2.164-0.856,4.369-0.068,6.537c0.933,2.563,3.419,3.856,6.1,3.271c3.128-0.684,5.825-3.631,6.096-7.052
		c0.203-2.57,0.041-5.171,0.036-7.758C367.573,426.479,367.499,426.435,367.344,426.26z"/>
	<path fill-rule="evenodd" clip-rule="evenodd" d="M534.66,493.022c0,0.35,0.061,0.717-0.01,1.057
		c-0.773,3.713-1.354,7.467-2.238,11.254c-0.522-0.149-0.925-0.243-1.312-0.38c-2.897-1.025-5.897-1.364-8.931-1.071
		c-4.378,0.423-7.731,2.57-9.959,6.396c-1.079,1.853-1.687,3.868-1.972,5.984c-0.434,3.223-0.217,6.39,0.855,9.477
		c1.695,4.878,5.833,8.71,12.383,8.964c2.741,0.106,5.419-0.316,8.022-1.189c0.286-0.096,0.57-0.197,0.859-0.284
		c0.113-0.035,0.237-0.038,0.427-0.065c0.632,1.259,0.51,2.687,0.785,4.026c0.268,1.299,0.396,2.627,0.584,3.942
		c0.196,1.369,0.391,2.738,0.598,4.188c-0.482,0.239-0.888,0.48-1.321,0.647c-2.499,0.965-5.115,1.45-7.763,1.7
		c-2.646,0.25-5.295,0.335-7.964,0.117c-10.313-0.842-19.062-6.734-22.223-17.817c-2.113-7.409-2.01-14.833,0.778-22.07
		c3.388-8.796,9.851-14.159,18.983-16.246c5.941-1.357,11.878-1.089,17.732,0.651c0.405,0.12,0.806,0.258,1.199,0.411
		C534.338,492.776,534.476,492.902,534.66,493.022z"/>
	<path fill-rule="evenodd" clip-rule="evenodd" d="M468.344,492.205c0.521,3.171,0.212,6.457,0.8,9.879
		c0.291-0.332,0.515-0.501,0.623-0.727c0.445-0.923,0.794-1.896,1.29-2.79c1.691-3.043,4.063-5.368,7.292-6.778
		c2.349-1.026,4.791-1.123,7.283-0.853c0.116,0.013,0.235,0.061,0.339,0.117s0.19,0.145,0.284,0.219
		c0.238,1.548,0.227,13.877-0.019,15.349c-0.493,0.363-1.041,0.119-1.558,0.082c-1.324-0.096-2.637-0.181-3.975-0.065
		c-4.422,0.385-8.766,3.427-9.454,9.59c-0.154,1.376-0.155,2.773-0.158,4.162c-0.014,7.972-0.005,15.943-0.01,23.916
		c-0.001,0.713-0.049,1.425-0.077,2.191c-0.396,0.085-0.679,0.198-0.963,0.198c-4.529,0.013-9.059,0.012-13.588,0.006
		c-0.237,0-0.474-0.064-0.798-0.111c-0.069-0.34-0.176-0.675-0.198-1.015c-0.034-0.542-0.011-1.087-0.012-1.631
		c-0.012-13.527-0.007-27.056-0.049-40.584c-0.01-3.199-0.184-6.397-0.273-9.596c-0.015-0.527,0.015-1.055,0.023-1.554
		C456.761,491.916,466.742,491.911,468.344,492.205z"/>
	<path fill-rule="evenodd" clip-rule="evenodd" d="M332.593,451.892c-2.052,0.247-11.717,0.197-13.207-0.075
		c-0.039-0.307-0.104-0.649-0.121-0.995c-0.023-0.482-0.012-0.966-0.012-1.449c0-16.491-0.002-32.982,0.006-49.474
		c0-0.775-0.119-1.566,0.186-2.405c1.398-0.34,2.844-0.127,4.271-0.161c1.51-0.037,3.021-0.019,4.53-0.006
		c1.435,0.013,2.875-0.065,4.392,0.07c0.056,0.449,0.125,0.794,0.137,1.141C333.007,405.733,332.866,450.102,332.593,451.892z"/>
	<path fill-rule="evenodd" clip-rule="evenodd" d="M539.06,451.873c-2.047,0.258-11.79,0.217-13.304-0.054
		c-0.032-0.55-0.095-1.136-0.096-1.723c-0.009-3.806-0.005-7.611-0.005-11.417c0-12.987-0.001-25.975,0.002-38.962
		c0-0.716,0.026-1.432,0.042-2.204c1.526-0.352,2.971-0.15,4.397-0.183c1.51-0.034,3.021-0.018,4.53-0.005
		c1.436,0.013,2.876-0.066,4.285,0.062c0.107,0.281,0.226,0.443,0.226,0.606c0.02,17.578,0.031,35.156,0.037,52.733
		C539.175,451.08,539.105,451.433,539.06,451.873z"/>
	<path fill-rule="evenodd" clip-rule="evenodd" d="M539.553,382.034c0.01,1.586-0.231,3.125-0.961,4.551
		c-1.656,3.241-4.73,4.468-8.198,3.648c-1.068-0.252-2.029-0.819-2.743-1.662c-0.577-0.683-1.156-1.418-1.507-2.228
		c-1.231-2.845-1.26-5.76-0.011-8.596c1.359-3.09,4.133-4.739,8.021-3.957c1.8,0.361,3.127,1.498,4.075,3.058
		C539.195,378.44,539.542,380.196,539.553,382.034z"/>
	<path fill-rule="evenodd" clip-rule="evenodd" d="M333.146,382.119c0.045,1.648-0.271,3.227-1.074,4.688
		c-1.339,2.434-3.404,3.683-6.182,3.671c-2.813-0.012-4.854-1.382-6.025-3.875c-1.405-2.991-1.425-6.094-0.016-9.088
		c1.207-2.563,3.31-3.911,6.195-3.908c2.893,0.003,4.908,1.4,6.168,3.946C332.919,378.984,333.188,380.52,333.146,382.119z"/>
	<path fill-rule="evenodd" clip-rule="evenodd" d="M428.157,191.648c0.007,3.249-0.913,5.996-2.999,8.284
		c-1.842,2.02-4.122,3.073-6.907,2.942c-2.017-0.095-3.733-0.878-5.229-2.187c-1.985-1.738-3.133-3.973-3.577-6.534
		c-0.464-2.669-0.198-5.286,0.993-7.765c0.688-1.434,1.63-2.674,2.861-3.682c3.169-2.596,7.459-2.652,10.671-0.104
		c2.496,1.981,3.754,4.65,4.119,7.771C428.146,190.854,428.143,191.339,428.157,191.648z"/>
</g>
</svg>
