<svg xmlns="http://www.w3.org/2000/svg" width="1024" height="1024" viewBox="0 0 1024 1024">
<g>
<path d="M 347.00 473.50 L 347.00 617.00 L 273.00 617.00 L 273.00 173.00 L 184.00 173.00 L 184.00 105.02 L 228.25 104.76 L 272.50 104.50 L 273.03 33.00 L 346.97 33.00 L 347.50 104.50 L 392.25 104.76 L 437.00 105.02 L 437.00 173.00 L 347.00 173.00 L 347.00 239.94 C347.00,276.76 347.35,307.10 347.77,307.36 C348.20,307.62 350.79,305.02 353.52,301.58 C356.26,298.13 413.55,236.30 480.84,164.16 L 603.18 33.00 L 649.09 33.00 C674.34,33.00 695.00,33.20 695.00,33.44 C695.00,33.67 673.64,55.84 647.52,82.69 L 600.05 131.50 L 600.04 292.50 L 604.27 287.77 C606.60,285.17 639.55,249.96 677.50,209.53 L 746.50 136.02 L 783.98 136.01 L 821.46 136.00 L 813.33 144.25 C771.30,186.90 650.00,311.59 650.00,312.14 C650.00,312.53 691.14,355.50 741.43,407.63 C791.72,459.76 832.64,502.77 832.37,503.21 C832.10,503.64 814.14,504.00 792.46,504.00 L 753.04 504.00 L 746.17 496.75 C742.39,492.76 708.36,455.98 670.54,415.00 C632.72,374.02 601.38,340.35 600.89,340.17 C600.37,339.97 600.03,372.89 600.06,418.67 L 600.12 497.50 L 656.94 556.50 C688.19,588.95 713.56,615.84 713.32,616.25 C713.08,616.66 690.03,617.00 662.09,617.00 L 611.30 617.00 L 485.77 480.25 C362.12,345.55 350.03,332.24 350.01,330.75 C350.00,330.34 349.33,330.00 348.50,330.00 C347.17,330.00 347.00,346.61 347.00,473.50 ZM 482.47 374.49 C514.36,407.77 540.86,435.00 541.38,435.00 C541.94,435.00 542.05,429.59 541.66,421.34 C541.29,413.83 541.00,359.60 541.00,300.84 C541.00,242.08 540.62,194.00 540.15,194.00 C539.04,194.00 424.50,311.97 424.50,313.11 C424.50,313.59 450.59,341.21 482.47,374.49 ZM 473.00 772.50 L 472.50 807.50 L 460.45 807.78 C453.82,807.93 448.08,807.75 447.70,807.36 C447.31,806.98 447.00,783.34 447.00,754.83 L 447.00 703.00 L 468.74 703.00 L 469.44 710.07 L 470.13 717.14 L 473.08 712.70 C476.09,708.14 481.35,703.92 486.32,702.06 C487.86,701.48 492.27,701.00 496.10,701.00 C506.76,701.00 512.26,704.57 517.47,714.87 L 519.18 718.24 L 520.97 715.37 C523.79,710.86 531.14,704.24 535.22,702.55 C539.51,700.76 551.48,700.48 555.68,702.06 C557.23,702.64 560.23,704.78 562.33,706.81 C569.43,713.64 572.50,721.97 573.99,738.50 C575.07,750.45 575.35,802.08 574.36,805.78 C573.76,808.01 573.51,808.05 561.63,807.78 L 549.50 807.50 L 549.00 773.00 C548.53,740.35 548.38,738.25 546.34,733.84 C543.91,728.57 541.69,727.00 536.64,727.00 C532.97,727.00 528.04,730.32 525.73,734.36 C524.85,735.89 524.36,746.59 524.00,772.00 L 523.50 807.50 L 498.50 807.50 L 498.00 772.50 C497.46,734.74 497.12,732.30 491.88,728.63 C488.62,726.34 482.83,726.56 479.61,729.09 C473.63,733.80 473.55,734.33 473.00,772.50 ZM 773.00 954.00 L 772.50 988.50 L 743.00 989.05 L 743.00 837.00 L 773.00 837.00 L 773.00 896.01 L 776.45 892.19 C778.34,890.09 782.28,887.05 785.20,885.44 C790.12,882.71 791.25,882.50 801.00,882.50 C809.87,882.50 812.13,882.84 815.57,884.68 C820.94,887.55 826.68,894.03 829.49,900.38 C834.03,910.64 834.47,915.32 834.49,953.00 L 834.50 988.50 L 804.50 988.50 L 804.00 954.00 C803.51,920.36 803.44,919.39 801.19,915.17 C795.87,905.21 781.61,905.73 775.50,916.10 C773.63,919.27 773.47,921.80 773.00,954.00 ZM 356.00 954.00 L 355.50 988.50 L 326.00 989.05 L 326.00 837.00 L 356.00 837.00 L 356.00 896.01 L 359.45 892.19 C361.34,890.09 365.28,887.05 368.20,885.44 C373.12,882.71 374.25,882.50 384.00,882.50 C392.92,882.50 395.12,882.83 398.63,884.71 C407.08,889.23 413.09,898.67 416.26,912.40 C417.04,915.79 417.45,929.44 417.47,953.00 L 417.50 988.50 L 387.50 988.50 L 387.00 954.00 C386.51,920.36 386.44,919.39 384.19,915.17 C378.87,905.21 364.61,905.73 358.50,916.10 C356.63,919.27 356.47,921.80 356.00,954.00 ZM 228.00 760.63 L 228.00 808.00 L 215.67 808.00 C208.88,808.00 203.03,807.70 202.67,807.33 C202.30,806.97 202.00,774.34 202.00,734.83 L 202.00 663.00 L 227.97 663.00 L 228.24 694.75 L 228.50 726.50 L 231.37 721.00 C242.81,699.10 262.48,663.75 263.43,663.39 C264.06,663.15 271.38,663.07 279.68,663.22 L 294.77 663.50 L 275.80 693.90 L 256.83 724.30 L 262.10 735.40 C264.99,741.51 274.02,760.13 282.15,776.79 C292.25,797.49 296.53,807.24 295.67,807.57 C294.97,807.84 288.13,807.93 280.46,807.78 L 266.52 807.50 L 252.51 776.78 C244.80,759.88 238.27,746.05 238.00,746.04 C237.73,746.03 235.36,749.31 232.75,753.33 ZM 622.77 783.71 L 622.50 807.50 L 609.75 807.78 L 597.00 808.06 L 597.00 663.00 L 623.00 663.00 L 623.00 726.46 L 636.94 700.72 C644.61,686.55 652.36,672.27 654.17,668.98 L 657.46 663.00 L 673.23 663.00 C681.90,663.00 689.00,663.26 689.00,663.58 C689.00,663.90 680.67,677.56 670.50,693.92 C660.33,710.28 652.00,724.13 652.00,724.69 C652.00,725.24 660.78,743.75 671.50,765.82 C682.22,787.89 691.00,806.41 691.00,806.97 C691.00,808.56 662.52,808.34 661.23,806.75 C660.67,806.06 654.28,792.45 647.01,776.50 C639.75,760.55 633.47,747.15 633.07,746.72 C632.67,746.29 630.24,749.08 627.69,752.93 L 623.04 759.92 ZM 839.42 381.13 C839.12,381.61 825.49,382.00 809.13,382.00 L 779.37 382.00 L 715.82 313.87 L 721.17 308.18 C724.11,305.06 738.39,290.01 752.91,274.75 L 779.29 247.00 L 838.46 247.00 L 828.49 257.25 C823.00,262.89 808.53,277.62 796.33,290.00 L 774.15 312.50 L 807.05 346.38 C825.15,365.02 839.71,380.65 839.42,381.13 ZM 806.33 806.23 C797.68,810.27 785.52,811.13 777.49,808.26 C756.54,800.77 746.00,783.11 746.00,755.50 C746.00,736.65 750.50,723.57 760.65,712.92 C768.73,704.46 775.60,701.61 789.00,701.18 C802.48,700.74 808.46,702.75 816.90,710.57 C827.91,720.76 833.23,735.14 833.19,754.59 C833.14,779.82 823.61,798.14 806.33,806.23 ZM 289.50 989.03 C283.09,990.82 258.53,991.16 251.00,989.57 C225.57,984.18 208.93,968.72 200.84,942.96 C198.77,936.36 198.50,933.54 198.50,918.50 C198.50,898.90 200.10,891.35 207.06,878.06 C222.00,849.52 256.10,836.18 292.79,844.52 C298.23,845.76 300.93,846.35 301.94,847.99 C302.94,849.59 302.32,852.19 301.10,857.36 L 301.05 857.55 C299.88,862.47 298.49,868.14 297.96,870.14 L 296.98 873.78 L 290.74 871.72 C285.91,870.12 281.79,869.64 272.50,869.58 C261.02,869.50 260.21,869.64 253.82,872.66 C237.15,880.56 229.98,893.62 229.93,916.13 C229.91,927.92 231.06,934.04 234.71,941.50 C238.42,949.08 241.68,952.84 248.21,957.06 C259.09,964.09 273.99,965.65 290.19,961.45 C293.51,960.59 296.51,960.17 296.86,960.52 C297.21,960.87 298.45,966.51 299.60,973.05 L 301.71 984.95 L 297.60 986.43 C295.35,987.25 291.70,988.42 289.50,989.03 ZM 493.71 988.84 C487.77,991.06 477.21,991.65 472.00,990.06 C463.34,987.42 455.42,980.46 451.83,972.35 C447.63,962.85 447.04,956.30 447.02,919.25 L 447.00 884.00 L 476.86 884.00 L 477.21 917.75 C477.59,953.72 477.75,955.01 482.73,960.23 C488.21,965.97 495.49,966.14 501.72,960.67 C507.91,955.24 508.00,954.63 508.00,917.53 L 508.00 884.00 L 538.00 884.00 L 538.00 916.84 C538.00,934.90 538.30,958.53 538.66,969.34 L 539.32 989.00 L 526.72 989.00 C519.79,989.00 513.86,988.59 513.55,988.09 C513.24,987.58 512.70,984.43 512.35,981.09 C512.00,977.74 511.59,975.00 511.44,975.00 C511.28,975.00 508.53,977.63 505.32,980.84 C501.15,985.01 497.83,987.29 493.71,988.84 ZM 387.32 808.41 C372.92,813.31 357.97,805.79 352.53,790.89 C350.27,784.73 349.91,772.04 351.79,765.50 C356.37,749.60 370.10,740.18 391.52,738.22 L 399.50 737.48 L 399.22 734.01 C398.63,726.87 393.36,723.00 384.21,723.00 C378.59,723.00 369.98,725.31 365.12,728.12 C363.27,729.20 361.53,729.87 361.27,729.60 C361.01,729.34 359.78,724.83 358.54,719.57 C358.46,719.22 358.38,718.89 358.31,718.57 C357.08,713.38 356.55,711.14 357.37,709.63 C358.05,708.39 359.66,707.66 362.56,706.20 C370.27,702.32 378.61,700.81 390.46,701.17 C400.17,701.46 402.19,701.84 407.27,704.33 C416.84,709.03 422.83,719.00 424.96,733.77 C425.50,737.47 426.06,755.70 426.22,774.28 L 426.50 808.06 L 415.00 807.78 C403.56,807.50 403.50,807.49 403.22,805.00 C402.79,801.19 402.59,799.30 401.78,799.00 C401.00,798.71 399.66,799.92 397.00,802.31 L 396.96 802.35 C394.23,804.80 389.89,807.53 387.32,808.41 ZM 714.25 988.44 C706.21,990.85 686.18,991.47 679.27,989.53 C665.71,985.70 653.83,976.49 648.54,965.68 C640.41,949.05 640.17,926.91 647.96,910.27 C653.93,897.52 666.78,887.26 681.46,883.52 C691.59,880.94 716.50,882.17 719.74,885.41 C720.09,885.76 719.36,891.38 718.10,897.90 L 715.82 909.75 L 711.25 908.37 C708.74,907.62 703.47,907.00 699.54,907.00 C682.33,907.00 671.85,919.58 673.28,938.51 C673.92,946.99 675.96,952.32 680.30,956.82 C687.67,964.46 696.40,967.01 707.14,964.68 C710.64,963.92 714.23,962.98 715.12,962.59 C716.49,961.99 716.97,963.43 718.37,972.38 C718.48,973.12 718.59,973.82 718.69,974.48 C719.90,982.13 720.34,984.94 719.13,986.38 C718.33,987.34 716.79,987.68 714.25,988.44 ZM 599.00 957.00 L 598.50 988.50 L 583.94 988.78 C575.94,988.93 569.07,988.74 568.69,988.36 C568.31,987.98 568.00,964.34 568.00,935.83 L 568.00 884.00 L 594.00 884.00 L 594.00 893.00 C594.00,897.95 594.36,902.00 594.81,902.00 C595.25,902.00 596.36,900.31 597.28,898.25 C601.78,888.11 610.96,882.00 621.72,882.00 L 628.05 882.00 L 627.78 897.19 L 627.50 912.37 L 621.37 912.12 C612.06,911.74 605.13,915.29 601.15,922.50 C599.75,925.05 599.43,930.20 599.00,957.00 ZM 729.02 703.00 L 728.50 807.50 L 715.95 807.78 C709.04,807.93 703.08,807.74 702.70,807.36 C702.31,806.98 702.00,783.34 702.00,754.83 L 702.00 703.00 ZM 333.76 755.25 L 333.50 807.50 L 320.75 807.78 L 308.00 808.06 L 308.00 703.00 L 334.02 703.00 ZM 785.50 785.59 C789.34,787.30 790.35,787.30 794.38,785.61 C801.84,782.50 806.00,771.55 806.00,755.02 C806.00,742.38 803.75,733.51 799.14,728.00 C796.39,724.71 795.86,724.50 790.18,724.50 C784.88,724.50 783.76,724.86 781.14,727.37 C779.49,728.94 777.10,732.54 775.82,735.37 C773.74,739.98 773.50,741.97 773.50,755.00 C773.50,768.02 773.74,770.01 775.80,774.49 C778.56,780.47 781.46,783.79 785.50,785.59 ZM 504.80 329.59 C496.38,333.99 484.74,327.84 481.14,317.10 C478.08,307.97 481.62,296.26 488.90,291.45 C492.49,289.07 493.69,288.81 499.46,289.18 C504.98,289.53 506.44,290.04 509.11,292.55 C520.01,302.79 517.67,322.86 504.80,329.59 ZM 327.70 688.04 C315.22,695.65 302.28,679.99 308.94,665.33 C311.16,660.43 314.00,658.33 319.50,657.50 C328.22,656.20 334.52,662.94 334.45,673.50 C334.41,680.63 332.26,685.26 327.70,688.04 ZM 723.66 686.87 C722.10,688.32 719.47,689.41 716.81,689.70 C708.59,690.61 702.00,683.40 702.00,673.50 C702.00,664.12 707.55,657.50 715.42,657.50 C724.05,657.50 729.14,663.45 729.14,673.51 C729.14,679.34 727.54,683.24 723.66,686.87 ZM 380.00 784.15 C383.55,787.71 388.34,787.93 393.00,784.75 C398.34,781.10 400.00,776.85 400.00,766.77 C400.00,758.34 399.91,758.00 397.75,758.02 C392.29,758.05 383.72,760.89 380.90,763.60 C375.05,769.20 374.63,778.78 380.00,784.15 Z" fill="rgb(54,53,51)"/>
<path d="M 0.00 512.00 L 0.00 0.00 L 512.00 0.00 L 1024.00 0.00 L 1024.00 512.00 L 1024.00 1024.00 L 512.00 1024.00 L 0.00 1024.00 L 0.00 512.00 ZM 289.50 989.03 C291.70,988.42 295.35,987.25 297.60,986.43 L 301.71 984.95 L 299.60 973.05 C298.45,966.51 297.21,960.87 296.86,960.52 C296.51,960.17 293.51,960.59 290.19,961.45 C273.99,965.65 259.09,964.09 248.21,957.06 C241.68,952.84 238.42,949.08 234.71,941.50 C231.06,934.04 229.91,927.92 229.93,916.13 C229.98,893.62 237.15,880.56 253.82,872.66 C260.21,869.64 261.02,869.50 272.50,869.58 C281.79,869.64 285.91,870.12 290.74,871.72 L 296.98 873.78 L 297.96 870.14 C298.49,868.14 299.88,862.47 301.05,857.55 C303.57,846.90 303.62,846.98 292.79,844.52 C256.10,836.18 222.00,849.52 207.06,878.06 C200.10,891.35 198.50,898.90 198.50,918.50 C198.50,933.54 198.77,936.36 200.84,942.96 C208.93,968.72 225.57,984.18 251.00,989.57 C258.53,991.16 283.09,990.82 289.50,989.03 ZM 493.71 988.84 C497.83,987.29 501.15,985.01 505.32,980.84 C508.53,977.63 511.28,975.00 511.44,975.00 C511.59,975.00 512.00,977.74 512.35,981.09 C512.70,984.43 513.24,987.58 513.55,988.09 C513.86,988.59 519.79,989.00 526.72,989.00 L 539.32 989.00 L 538.66 969.34 C538.30,958.53 538.00,934.90 538.00,916.84 L 538.00 884.00 L 523.00 884.00 L 508.00 884.00 L 508.00 917.53 C508.00,954.63 507.91,955.24 501.72,960.67 C495.49,966.14 488.21,965.97 482.73,960.23 C477.75,955.01 477.59,953.72 477.21,917.75 L 476.86 884.00 L 461.93 884.00 L 447.00 884.00 L 447.02 919.25 C447.04,956.30 447.63,962.85 451.83,972.35 C455.42,980.46 463.34,987.42 472.00,990.06 C477.21,991.65 487.77,991.06 493.71,988.84 ZM 714.25 988.44 C720.92,986.45 720.69,987.32 718.37,972.38 C716.97,963.43 716.49,961.99 715.12,962.59 C714.23,962.98 710.64,963.92 707.14,964.68 C696.40,967.01 687.67,964.46 680.30,956.82 C675.96,952.32 673.92,946.99 673.28,938.51 C671.85,919.58 682.33,907.00 699.54,907.00 C703.47,907.00 708.74,907.62 711.25,908.37 L 715.82 909.75 L 718.10 897.90 C719.36,891.38 720.09,885.76 719.74,885.41 C716.50,882.17 691.59,880.94 681.46,883.52 C666.78,887.26 653.93,897.52 647.96,910.27 C640.17,926.91 640.41,949.05 648.54,965.68 C653.83,976.49 665.71,985.70 679.27,989.53 C686.18,991.47 706.21,990.85 714.25,988.44 ZM 356.00 954.00 C356.47,921.80 356.63,919.27 358.50,916.10 C364.61,905.73 378.87,905.21 384.19,915.17 C386.44,919.39 386.51,920.36 387.00,954.00 L 387.50 988.50 L 402.50 988.50 L 417.50 988.50 L 417.47 953.00 C417.45,929.44 417.04,915.79 416.26,912.40 C413.09,898.67 407.08,889.23 398.63,884.71 C395.12,882.83 392.92,882.50 384.00,882.50 C374.25,882.50 373.12,882.71 368.20,885.44 C365.28,887.05 361.34,890.09 359.45,892.19 L 356.00 896.01 L 356.00 866.50 L 356.00 837.00 L 341.00 837.00 L 326.00 837.00 L 326.00 913.03 L 326.00 989.05 L 340.75 988.78 L 355.50 988.50 L 356.00 954.00 ZM 599.00 957.00 C599.43,930.20 599.75,925.05 601.15,922.50 C605.13,915.29 612.06,911.74 621.37,912.12 L 627.50 912.37 L 627.78 897.19 L 628.05 882.00 L 621.72 882.00 C610.96,882.00 601.78,888.11 597.28,898.25 C596.36,900.31 595.25,902.00 594.81,902.00 C594.36,902.00 594.00,897.95 594.00,893.00 L 594.00 884.00 L 581.00 884.00 L 568.00 884.00 L 568.00 935.83 C568.00,964.34 568.31,987.98 568.69,988.36 C569.07,988.74 575.94,988.93 583.94,988.78 L 598.50 988.50 L 599.00 957.00 ZM 773.00 954.00 C773.47,921.80 773.63,919.27 775.50,916.10 C781.61,905.73 795.87,905.21 801.19,915.17 C803.44,919.39 803.51,920.36 804.00,954.00 L 804.50 988.50 L 819.50 988.50 L 834.50 988.50 L 834.49 953.00 C834.47,915.32 834.03,910.64 829.49,900.38 C826.68,894.03 820.94,887.55 815.57,884.68 C812.13,882.84 809.87,882.50 801.00,882.50 C791.25,882.50 790.12,882.71 785.20,885.44 C782.28,887.05 778.34,890.09 776.45,892.19 L 773.00 896.01 L 773.00 866.50 L 773.00 837.00 L 758.00 837.00 L 743.00 837.00 L 743.00 913.03 L 743.00 989.05 L 757.75 988.78 L 772.50 988.50 L 773.00 954.00 ZM 387.32 808.41 C389.89,807.53 394.23,804.80 396.96,802.35 C402.39,797.46 402.38,797.46 403.22,805.00 C403.50,807.49 403.56,807.50 415.00,807.78 L 426.50 808.06 L 426.22 774.28 C426.06,755.70 425.50,737.47 424.96,733.77 C422.83,719.00 416.84,709.03 407.27,704.33 C402.19,701.84 400.17,701.46 390.46,701.17 C378.61,700.81 370.27,702.32 362.56,706.20 C355.93,709.54 356.07,709.07 358.54,719.57 C359.78,724.83 361.01,729.34 361.27,729.60 C361.53,729.87 363.27,729.20 365.12,728.12 C369.98,725.31 378.59,723.00 384.21,723.00 C393.36,723.00 398.63,726.87 399.22,734.01 L 399.50 737.48 L 391.52 738.22 C370.10,740.18 356.37,749.60 351.79,765.50 C349.91,772.04 350.27,784.73 352.53,790.89 C357.97,805.79 372.92,813.31 387.32,808.41 ZM 806.33 806.23 C823.61,798.14 833.14,779.82 833.19,754.59 C833.23,735.14 827.91,720.76 816.90,710.57 C808.46,702.75 802.48,700.74 789.00,701.18 C775.60,701.61 768.73,704.46 760.65,712.92 C750.50,723.57 746.00,736.65 746.00,755.50 C746.00,783.11 756.54,800.77 777.49,808.26 C785.52,811.13 797.68,810.27 806.33,806.23 ZM 228.00 784.31 L 228.00 760.63 L 232.75 753.33 C235.36,749.31 237.73,746.03 238.00,746.04 C238.27,746.05 244.80,759.88 252.51,776.78 L 266.52 807.50 L 280.46 807.78 C288.13,807.93 294.97,807.84 295.67,807.57 C296.53,807.24 292.25,797.49 282.15,776.79 C274.02,760.13 264.99,741.51 262.10,735.40 L 256.83 724.30 L 275.80 693.90 L 294.77 663.50 L 279.68 663.22 C271.38,663.07 264.06,663.15 263.43,663.39 C262.48,663.75 242.81,699.10 231.37,721.00 L 228.50 726.50 L 228.24 694.75 L 227.97 663.00 L 214.99 663.00 L 202.00 663.00 L 202.00 734.83 C202.00,774.34 202.30,806.97 202.67,807.33 C203.03,807.70 208.88,808.00 215.67,808.00 L 228.00 808.00 L 228.00 784.31 ZM 333.76 755.25 L 334.02 703.00 L 321.01 703.00 L 308.00 703.00 L 308.00 755.53 L 308.00 808.06 L 320.75 807.78 L 333.50 807.50 L 333.76 755.25 ZM 473.00 772.50 C473.55,734.33 473.63,733.80 479.61,729.09 C482.83,726.56 488.62,726.34 491.88,728.63 C497.12,732.30 497.46,734.74 498.00,772.50 L 498.50 807.50 L 511.00 807.50 L 523.50 807.50 L 524.00 772.00 C524.36,746.59 524.85,735.89 525.73,734.36 C528.04,730.32 532.97,727.00 536.64,727.00 C541.69,727.00 543.91,728.57 546.34,733.84 C548.38,738.25 548.53,740.35 549.00,773.00 L 549.50 807.50 L 561.63 807.78 C573.51,808.05 573.76,808.01 574.36,805.78 C575.35,802.08 575.07,750.45 573.99,738.50 C572.50,721.97 569.43,713.64 562.33,706.81 C560.23,704.78 557.23,702.64 555.68,702.06 C551.48,700.48 539.51,700.76 535.22,702.55 C531.14,704.24 523.79,710.86 520.97,715.37 L 519.18 718.24 L 517.47 714.87 C512.26,704.57 506.76,701.00 496.10,701.00 C492.27,701.00 487.86,701.48 486.32,702.06 C481.35,703.92 476.09,708.14 473.08,712.70 L 470.13 717.14 L 469.44 710.07 L 468.74 703.00 L 457.87 703.00 L 447.00 703.00 L 447.00 754.83 C447.00,783.34 447.31,806.98 447.70,807.36 C448.08,807.75 453.82,807.93 460.45,807.78 L 472.50 807.50 L 473.00 772.50 ZM 622.77 783.71 L 623.04 759.92 L 627.69 752.93 C630.24,749.08 632.67,746.29 633.07,746.72 C633.47,747.15 639.75,760.55 647.01,776.50 C654.28,792.45 660.67,806.06 661.23,806.75 C662.52,808.34 691.00,808.56 691.00,806.97 C691.00,806.41 682.22,787.89 671.50,765.82 C660.78,743.75 652.00,725.24 652.00,724.69 C652.00,724.13 660.33,710.28 670.50,693.92 C680.67,677.56 689.00,663.90 689.00,663.58 C689.00,663.26 681.90,663.00 673.23,663.00 L 657.46 663.00 L 654.17 668.98 C652.36,672.27 644.61,686.55 636.94,700.72 L 623.00 726.46 L 623.00 694.73 L 623.00 663.00 L 610.00 663.00 L 597.00 663.00 L 597.00 735.53 L 597.00 808.06 L 609.75 807.78 L 622.50 807.50 L 622.77 783.71 ZM 728.76 755.25 L 729.02 703.00 L 715.51 703.00 L 702.00 703.00 L 702.00 754.83 C702.00,783.34 702.31,806.98 702.70,807.36 C703.08,807.74 709.04,807.93 715.95,807.78 L 728.50 807.50 L 728.76 755.25 ZM 327.70 688.04 C332.26,685.26 334.41,680.63 334.45,673.50 C334.52,662.94 328.22,656.20 319.50,657.50 C314.00,658.33 311.16,660.43 308.94,665.33 C302.28,679.99 315.22,695.65 327.70,688.04 ZM 723.66 686.87 C727.54,683.24 729.14,679.34 729.14,673.51 C729.14,663.45 724.05,657.50 715.42,657.50 C707.55,657.50 702.00,664.12 702.00,673.50 C702.00,683.40 708.59,690.61 716.81,689.70 C719.47,689.41 722.10,688.32 723.66,686.87 ZM 347.00 473.50 C347.00,346.61 347.17,330.00 348.50,330.00 C349.33,330.00 350.00,330.34 350.01,330.75 C350.03,332.24 362.12,345.55 485.77,480.25 L 611.30 617.00 L 662.09 617.00 C690.03,617.00 713.08,616.66 713.32,616.25 C713.56,615.84 688.19,588.95 656.94,556.50 L 600.12 497.50 L 600.06 418.67 C600.03,372.89 600.37,339.97 600.89,340.17 C601.38,340.35 632.72,374.02 670.54,415.00 C708.36,455.98 742.39,492.76 746.17,496.75 L 753.04 504.00 L 792.46 504.00 C814.14,504.00 832.10,503.64 832.37,503.21 C832.64,502.77 791.72,459.76 741.43,407.63 C691.14,355.50 650.00,312.53 650.00,312.14 C650.00,311.59 771.30,186.90 813.33,144.25 L 821.46 136.00 L 783.98 136.01 L 746.50 136.02 L 677.50 209.53 C639.55,249.96 606.60,285.17 604.27,287.77 L 600.04 292.50 L 600.04 212.00 L 600.05 131.50 L 647.52 82.69 C673.64,55.84 695.00,33.67 695.00,33.44 C695.00,33.20 674.34,33.00 649.09,33.00 L 603.18 33.00 L 480.84 164.16 C413.55,236.30 356.26,298.13 353.52,301.58 C350.79,305.02 348.20,307.62 347.77,307.36 C347.35,307.10 347.00,276.76 347.00,239.94 L 347.00 173.00 L 392.00 173.00 L 437.00 173.00 L 437.00 139.01 L 437.00 105.02 L 392.25 104.76 L 347.50 104.50 L 347.24 68.75 L 346.97 33.00 L 310.00 33.00 L 273.03 33.00 L 272.76 68.75 L 272.50 104.50 L 228.25 104.76 L 184.00 105.02 L 184.00 139.01 L 184.00 173.00 L 228.50 173.00 L 273.00 173.00 L 273.00 395.00 L 273.00 617.00 L 310.00 617.00 L 347.00 617.00 L 347.00 473.50 ZM 839.42 381.13 C839.71,380.65 825.15,365.02 807.05,346.38 L 774.15 312.50 L 796.33 290.00 C808.53,277.62 823.00,262.89 828.49,257.25 L 838.46 247.00 L 808.88 247.00 L 779.29 247.00 L 752.91 274.75 C738.39,290.01 724.11,305.06 721.17,308.18 L 715.82 313.87 L 747.60 347.93 L 779.37 382.00 L 809.13 382.00 C825.49,382.00 839.12,381.61 839.42,381.13 ZM 380.00 784.15 C374.63,778.78 375.05,769.20 380.90,763.60 C383.72,760.89 392.29,758.05 397.75,758.02 C399.91,758.00 400.00,758.34 400.00,766.77 C400.00,776.85 398.34,781.10 393.00,784.75 C388.34,787.93 383.55,787.71 380.00,784.15 ZM 785.50 785.59 C781.46,783.79 778.56,780.47 775.80,774.49 C773.74,770.01 773.50,768.02 773.50,755.00 C773.50,741.97 773.74,739.98 775.82,735.37 C777.10,732.54 779.49,728.94 781.14,727.37 C783.76,724.86 784.88,724.50 790.18,724.50 C795.86,724.50 796.39,724.71 799.14,728.00 C803.75,733.51 806.00,742.38 806.00,755.02 C806.00,771.55 801.84,782.50 794.38,785.61 C790.35,787.30 789.34,787.30 785.50,785.59 ZM 482.47 374.49 C450.59,341.21 424.50,313.59 424.50,313.11 C424.50,311.97 539.04,194.00 540.15,194.00 C540.62,194.00 541.00,242.08 541.00,300.84 C541.00,359.60 541.29,413.83 541.66,421.34 C542.05,429.59 541.94,435.00 541.38,435.00 C540.86,435.00 514.36,407.77 482.47,374.49 ZM 504.80 329.59 C517.67,322.86 520.01,302.79 509.11,292.55 C506.44,290.04 504.98,289.53 499.46,289.18 C493.69,288.81 492.49,289.07 488.90,291.45 C481.62,296.26 478.08,307.97 481.14,317.10 C484.74,327.84 496.38,333.99 504.80,329.59 Z" fill="rgb(254,254,254)"/>
</g>
</svg>